<svg xmlns="http://www.w3.org/2000/svg" width="113.814" height="113.813" viewBox="0 0 113.814 113.813">
  <g id="Group_120" data-name="Group 120" transform="translate(18178.003 7472)">
    <path id="Path_14" data-name="Path 14" d="M96.343,113.814H17.469A17.469,17.469,0,0,1,0,96.344V17.469A17.469,17.469,0,0,1,17.469,0H96.343a17.469,17.469,0,0,1,17.469,17.469V96.344a17.469,17.469,0,0,1-17.469,17.469" transform="translate(-18178 -7472)" fill="#f5ac05"/>
    <path id="Path_15" data-name="Path 15" d="M142.176,239.908a28.171,28.171,0,0,1-28.137-28.137v-5.781a2.153,2.153,0,0,1,4.305,0v5.781a23.8,23.8,0,1,0,47.6,0v-5.781a2.153,2.153,0,0,1,4.305,0v5.781a28.078,28.078,0,0,1-28.076,28.137" transform="translate(-18263.238 -7624.359)" fill="#fff"/>
    <path id="Path_16" data-name="Path 16" d="M169.9,104a18.793,18.793,0,0,0-18.758,18.758v14.422a18.758,18.758,0,1,0,37.516,0V122.757A18.793,18.793,0,0,0,169.9,104m6.7,26.415a1.873,1.873,0,0,1-1.814,1.384,2.683,2.683,0,0,1-.492-.061,18.138,18.138,0,0,0-9.594,0,1.88,1.88,0,0,1-.984-3.629,21.7,21.7,0,0,1,11.562,0,1.863,1.863,0,0,1,1.322,2.307m2.614-8.518a1.847,1.847,0,0,1-1.753,1.23,1.608,1.608,0,0,1-.646-.123,21.208,21.208,0,0,0-14.576,0,1.877,1.877,0,0,1-2.429-1.107,1.9,1.9,0,0,1,1.138-2.4,25.214,25.214,0,0,1,17.128,0,1.9,1.9,0,0,1,1.138,2.4" transform="translate(-18290.967 -7549.734)" fill="#fff"/>
    <rect id="Rectangle_23" data-name="Rectangle 23" width="113" height="113" transform="translate(-18177.594 -7471.593)" fill="none"/>
  </g>
</svg>
